<?xml version="1.0" encoding="utf-8"?>
<!-- Svg Vector Icons : http://www.onlinewebfonts.com/icon -->
<!DOCTYPE svg PUBLIC "-//W3C//DTD SVG 1.1//EN" "http://www.w3.org/Graphics/SVG/1.1/DTD/svg11.dtd">
<svg version="1.1" xmlns="http://www.w3.org/2000/svg" xmlns:xlink="http://www.w3.org/1999/xlink" x="0px" y="0px" viewBox="0 0 1000 1000" enable-background="new 0 0 1000 1000" xml:space="preserve">
<metadata> Svg Vector Icons : http://www.onlinewebfonts.com/icon </metadata>
<g><g transform="translate(0.000000,511.000000) scale(0.100000,-0.100000)"><path d="M2326.8,4984c-747.8-123-1386-595.9-1720.4-1274.5c-215.3-440.2-265.3-790-223-1599.3c69.2-1328.3,286.4-2794.9,597.8-4054c453.7-1831.9,1007.3-2787.3,1643.5-2841.1c461.3-38.4,824.6,286.4,1141.8,1020.7c55.7,125,194.2,509.4,311.4,851.6c238.4,707.4,313.3,905.4,430.6,1143.7c380.6,772.8,724.7,672.8,1122.6-324.9c40.4-103.8,171.1-471,288.3-818.9c322.9-949.6,488.2-1299.5,742-1566.6c292.2-311.4,645.9-392.1,982.3-226.8C8287.7-4387,8874-2949.2,9283.4-686.7c221.1,1226.4,376.7,2800.7,342.1,3460.1c-32.7,617.1-257.6,1132.2-678.5,1557c-467.1,469-1101.5,709.3-1783.9,676.6c-403.7-19.2-649.7-80.7-1068.8-267.2c-484.4-215.3-688.2-265.3-1095.7-265.3c-405.6,0-609.4,50-1095.7,265.3c-305.6,134.6-399.8,167.2-638.2,217.2C3026.5,5007.1,2549.8,5022.4,2326.8,4984z M3220.6,4399.6c151.9-38.4,221.1-63.5,644-248c384.4-165.3,711.2-234.5,1124.5-234.5c432.5,0,751.6,65.4,1138,232.6c430.6,186.4,495.9,211.4,649.7,249.9c238.4,59.6,642,69.2,874.6,21.1c672.8-138.4,1195.6-634.3,1364.8-1293.7c55.7-213.4,67.3-522.9,40.4-1026.5c-151.8-2796.9-930.4-5818.7-1620.5-6281.9c-138.4-90.4-236.4-65.4-392.1,107.6c-182.6,199.9-321,513.3-636.3,1445.5C6052.1-1572.8,5881-1226.8,5586.9-951.9c-215.3,201.8-455.6,282.6-715.1,240.3c-401.8-67.3-709.3-411.4-997.7-1116.8c-46.1-115.3-180.7-490.2-297.9-834.3c-303.7-899.6-449.8-1226.4-632.4-1424.4c-148-157.6-249.9-180.7-388.3-88.4c-171.1,111.5-403.7,490.2-599.7,970.7c-492.1,1207.2-911.2,3394.7-1015,5286.2c-26.9,511.3-15.4,851.6,40.4,1057.2c180.7,672.8,726.6,1170.7,1418.6,1297.5C2555.5,4465,3047.6,4443.8,3220.6,4399.6z"/></g></g>
</svg>